<?xml version="1.0" encoding="UTF-8"?>
<svg id="Laag_1" data-name="Laag 1" xmlns="http://www.w3.org/2000/svg" viewBox="0 0 338 423">
  <defs>
    <style>
      .cls-1 {
        fill: #4ecc5d;
      }

      .cls-1, .cls-2, .cls-3, .cls-4, .cls-5, .cls-6, .cls-7, .cls-8, .cls-9 {
        stroke-width: 0px;
      }

      .cls-2 {
        fill: #4ecd5d;
      }

      .cls-3 {
        fill: #4fcb5e;
      }

      .cls-4 {
        fill: #3e4f66;
      }

      .cls-5 {
        fill: #40b64e;
      }

      .cls-6 {
        fill: #fff;
      }

      .cls-7 {
        fill: #fefefe;
      }

      .cls-8 {
        fill: #eaeaea;
      }

      .cls-9 {
        fill: #ebebeb;
      }
    </style>
  </defs>
  <rect class="cls-9" x="252.06" y="140.95" width="37.91" height="56.01" rx="9.72" ry="9.72"/>
  <g>
    <rect class="cls-5" x=".92" y="193.08" width="336.17" height="41.91" rx="10.09" ry="10.09"/>
    <rect class="cls-1" x=".92" y="181.09" width="336.17" height="39.73" rx="10.09" ry="10.09"/>
  </g>
  <rect class="cls-9" x="20.65" y="235" width="294.94" height="188"/>
  <path class="cls-8" d="M271.14,64.6c0-2.16-.09-4.32.03-6.47.08-1.39-.8-3.31.89-4.03,1.43-.61,2.81.72,4.05,1.45,9.97,5.88,17.45,23.46,14.84,34.71-1.11,4.79-11.51,12.47-16.11,11.94-.98-.11-1.47-.59-1.65-1.5-.33-1.62-1.02-3.24-.97-4.84.32-10.45-.66-20.84-1.08-31.26Z"/>
  <path class="cls-8" d="M270.15,41.4c0,1.49,0,2.97,0,4.46,0,7.73-.46,8.02-7.19,4.58-7.5-3.84-9.16-14.76-3.25-20.94,1.84-1.93,3.88-2.42,6.25-1.46,2.42.97,4.3,2.41,4.19,5.44-.1,2.64-.02,5.28-.02,7.92h.02Z"/>
  <path class="cls-8" d="M274.07,123.24c.1,2.47-.69,3.25-2.65,2.17-2.02-1.11-4.24-2-5.99-3.45-3.1-2.54-6.44-5.55-5.05-10.01,1.35-4.31,5.03-6.67,9.41-8,2.55-.78,3.28-.04,3.36,2.41.21,5.77-.8,11.6.92,16.88Z"/>
  <path class="cls-7" d="M255.45,335.13c-7.79,0-15.61-.38-23.37.11-8.15.51-12.6-5.5-12.69-12.05-.18-12.94-.19-25.88,0-38.82.11-7.56,4.63-11.95,12.26-12.02,16.41-.14,32.83-.13,49.24,0,6.83.06,11.09,4.42,11.15,11.32.12,13.6.09,27.21.01,40.81-.04,6.13-4.56,10.56-10.73,10.62-8.62.08-17.24.02-25.86.02Z"/>
  <path class="cls-7" d="M82.2,335.13c-7.64,0-15.31-.42-22.91.12-7.66.54-12.39-4.19-12.78-10.16-.94-14.39-1.42-28.84.24-43.19.78-6.73,4.56-9.49,11.21-9.55,16.6-.15,33.21-.17,49.82,0,6.82.07,10.88,4.63,10.89,11.54.03,13.29.04,26.59,0,39.88-.02,7.09-4.35,11.3-11.57,11.33-8.3.03-16.61,0-24.91,0Z"/>
  <g>
    <path class="cls-2" d="M275.82,368.8c0-11.75,9.52-37.93,21.27-37.93s21.27,26.18,21.27,37.93-9.52,21.27-21.27,21.27-21.27-9.52-21.27-21.27Z"/>
    <rect class="cls-4" x="295.24" y="344.28" width="3.71" height="78.04" rx="1.85" ry="1.85"/>
    <rect class="cls-4" x="290.51" y="347.36" width="3.21" height="16.43" rx="1.61" ry="1.61" transform="translate(-162.57 284.65) rotate(-41.73)"/>
    <rect class="cls-4" x="301.07" y="362.75" width="3.21" height="16.43" rx="1.61" ry="1.61" transform="translate(378.06 -101.84) rotate(48.27)"/>
  </g>
  <path class="cls-4" d="M139.36,301.03h59.75c2.83,0,5.12,2.3,5.12,5.12v116.85h-64.88c-2.83,0-5.12-2.3-5.12-5.12v-111.72c0-2.83,2.3-5.12,5.12-5.12Z"/>
  <path class="cls-3" d="M133.56,386.53c2.1,1.9,3.87,4.26,5.33,7.09,4.73,9.17,4.87,19.55,1.72,29.26H21.03c-7.36-11.75-9.37-23.15-.03-34,11.72-9,21.67-8.46,32.12,2.17,2.9,2.95,3.56,1.73,4.8-1.16,8.1-18.89,25.07-19.07,35.79-12.14,3.97,2.57,6.41,6.62,9.38,10.16-.43-.51,7.29-5.24,8.13-5.6,2.71-1.18,5.63-1.67,8.57-1.42,5.54.47,10.13,2.36,13.76,5.65Z"/>
  <path class="cls-2" d="M267.23,423c-1.63-3.18-2.86-7.8.02-10.64,1.66-1.64,4.15-2.2,6.43-2.06,1.19.07,2.38.34,3.47.81,1.03.45,1.81,1.33,2.74,1.78,1.65-2.82,3.6-5.11,6.95-5.9,3.75-.88,10.25.95,11.09,5.35-.16-.85,2.69-2.39,3.23-2.59,3.44-1.27,7.38.7,9.53,3.42s2.61,6.45,2.11,9.84"/>
  <rect class="cls-6" x="46.14" y="272.28" width="73.37" height="62.65" rx="11.23" ry="11.23"/>
  <rect class="cls-6" x="218.95" y="272.28" width="73.37" height="62.65" rx="11.23" ry="11.23"/>
</svg>